<?xml version="1.0" encoding="UTF-8" standalone="no"?>
<!-- Created with Inkscape (http://www.inkscape.org/) -->

<svg
   xmlns:dc="http://purl.org/dc/elements/1.1/"
   xmlns:cc="http://creativecommons.org/ns#"
   xmlns:rdf="http://www.w3.org/1999/02/22-rdf-syntax-ns#"
   xmlns:svg="http://www.w3.org/2000/svg"
   xmlns="http://www.w3.org/2000/svg"
   xmlns:sodipodi="http://sodipodi.sourceforge.net/DTD/sodipodi-0.dtd"
   xmlns:inkscape="http://www.inkscape.org/namespaces/inkscape"
   width="241.57449mm"
   height="241.57451mm"
   viewBox="0 0 855.9726 855.97265"
   id="svg5066"
   version="1.1"
   inkscape:version="0.92.2 5c3e80d, 2017-08-06"
   sodipodi:docname="material-logo-grey-shirts.svg"
   inkscape:export-filename="/home/sam/projects/branding/EMSRobot Logo/new-material/material-logo-grey-shirts.svg.png"
   inkscape:export-xdpi="1000"
   inkscape:export-ydpi="1000">
  <defs
     id="defs5068" />
  <sodipodi:namedview
     id="base"
     pagecolor="#ffffff"
     bordercolor="#666666"
     borderopacity="1.0"
     inkscape:pageopacity="0.0"
     inkscape:pageshadow="2"
     inkscape:zoom="0.7"
     inkscape:cx="34.818217"
     inkscape:cy="417.12203"
     inkscape:document-units="px"
     inkscape:current-layer="g5669"
     showgrid="false"
     fit-margin-left="50"
     fit-margin-right="50"
     fit-margin-bottom="50"
     fit-margin-top="50"
     showguides="true"
     inkscape:guide-bbox="true"
     inkscape:window-width="1920"
     inkscape:window-height="1021"
     inkscape:window-x="1366"
     inkscape:window-y="0"
     inkscape:window-maximized="1"
     inkscape:snap-perpendicular="false">
    <sodipodi:guide
       position="678.8225,328.32503"
       orientation="1,0"
       id="guide5685"
       inkscape:locked="false" />
    <sodipodi:guide
       position="175.71428,348.00004"
       orientation="1,0"
       id="guide5687"
       inkscape:locked="false" />
  </sodipodi:namedview>
  <metadata
     id="metadata5071">
    <rdf:RDF>
      <cc:Work
         rdf:about="">
        <dc:format>image/svg+xml</dc:format>
        <dc:type
           rdf:resource="http://purl.org/dc/dcmitype/StillImage" />
        <dc:title />
      </cc:Work>
    </rdf:RDF>
  </metadata>
  <g
     inkscape:label="Layer 1"
     inkscape:groupmode="layer"
     id="layer1"
     transform="translate(45.436235,-181.3686)">
    <g
       id="g5669"
       transform="translate(0,-102)">
      <g
         transform="translate(-11.849498,0.086961)"
         id="g5660">
        <g
           id="g5651">
          <path
             id="path4973"
             d="m 365.6183,460.44699 -13.67458,34.32631 a 221.14162,221.14162 0 0 0 -26.47036,7.03675 l -29.54395,-23.31267 -13.08462,7.55335 -25.69549,14.83616 -13.08462,7.55488 5.35093,36.78856 a 221.14162,221.14162 0 0 0 -19.38775,19.11263 l -37.2914,-5.42581 -7.55488,13.08462 -14.8361,25.69545 -7.55339,13.08462 22.99784,29.14351 a 221.14162,221.14162 0 0 0 -7.42036,26.37405 l -34.79096,13.86105 v 15.10822 29.67081 15.10975 l 34.30797,13.66695 a 221.14162,221.14162 0 0 0 6.99396,26.55592 l -23.25311,29.46601 7.55488,13.08462 14.83469,25.69544 7.55488,13.08462 36.40949,-5.2959 a 221.14162,221.14162 0 0 0 19.42593,19.7836 l -5.35852,36.84052 13.08462,7.55488 25.69541,14.83617 13.08462,7.55334 28.63761,-22.5989 a 221.14162,221.14162 0 0 0 27.14436,7.68479 l 13.59515,34.12762 h 15.10973 29.6708 15.10823 l 13.38113,-33.5881 a 221.14162,221.14162 0 0 0 27.43935,-7.24308 l 28.86993,22.78232 13.08462,-7.55488 25.69544,-14.83464 13.08462,-7.55488 -5.20267,-35.75536 a 221.14162,221.14162 0 0 0 20.31396,-19.98993 l 36.21694,5.2684 7.55487,-13.08463 14.83464,-25.69545 7.55487,-13.08462 -22.35741,-28.33193 a 221.14162,221.14162 0 0 0 7.75815,-27.57537 l 33.81277,-13.46978 V 727.26723 697.59642 682.4882 l -33.60644,-13.38877 a 221.14162,221.14162 0 0 0 -7.28587,-27.35529 l 22.84192,-28.94635 -7.55336,-13.08462 -14.83616,-25.69544 -7.55488,-13.08462 -36.1344,5.25769 a 221.14162,221.14162 0 0 0 -19.67661,-19.9181 l 5.33564,-36.66782 -13.08462,-7.55487 -25.69544,-14.83464 -13.08463,-7.55488 -28.83783,22.75633 a 221.14162,221.14162 0 0 0 -26.80506,-7.49374 l -13.73572,-34.47609 h -15.10822 -29.67081 z m 29.15266,90.53471 A 160.54363,160.54363 0 0 1 555.31398,711.52472 160.54363,160.54363 0 0 1 394.77096,872.06774 160.54363,160.54363 0 0 1 234.22791,711.52472 160.54363,160.54363 0 0 1 394.77096,550.9817 Z"
             style="fill:#b3b3b3;fill-opacity:1;stroke-width:5;stroke-miterlimit:4;stroke-dasharray:none"
             inkscape:connector-curvature="0" />
        </g>
        <path
           inkscape:connector-curvature="0"
           style="fill:#999999;fill-opacity:1;stroke-width:5;stroke-miterlimit:4;stroke-dasharray:none"
           d="M 394.77096,549.97155 A 161.55379,161.55379 0 0 0 233.21776,711.52472 161.55379,161.55379 0 0 0 394.77096,873.07789 161.55379,161.55379 0 0 0 556.32413,711.52472 161.55379,161.55379 0 0 0 394.77096,549.97155 Z m 0,17.9671 A 143.58564,143.58564 0 0 1 538.35703,711.52472 143.58564,143.58564 0 0 1 394.77096,855.11079 143.58564,143.58564 0 0 1 251.18486,711.52472 143.58564,143.58564 0 0 1 394.77096,567.93865 Z"
           id="path5045" />
      </g>
      <g
         transform="matrix(1.3006581,0,0,1.3006581,-79.713186,-232.45542)"
         id="g5654">
        <path
           inkscape:connector-curvature="0"
           style="fill:#f9f9f9;fill-opacity:1;stroke-width:5;stroke-miterlimit:4;stroke-dasharray:none"
           d="m 317.31445,645.14453 -0.14062,0.12695 h -71.95899 v 31.31446 h 13.38477 v 97.73242 h -17.42578 v 31.81836 h 77.02344 v -31.81836 h -16.66602 v -64.32227 l 53.82031,89.92188 0.0156,0.1582 0.0391,-0.0664 0.041,0.0664 0.0156,-0.1582 53.82031,-89.92188 v 64.32227 h -16.66601 v 31.81836 h 77.02343 v -31.81836 h -17.42578 v -97.73242 h 13.38477 v -31.31446 h -71.95899 l -0.14062,-0.12695 -0.0703,0.12695 h -0.3086 v 0.56446 l -33.58789,61.30664 -4.12695,8.10742 -4.125,-8.10742 -33.58789,-61.30664 v -0.56446 h -0.30859 z"
           id="rect5093" />
      </g>
    </g>
  </g>
</svg>
