<?xml version="1.0" encoding="UTF-8" standalone="no"?>
<!-- Created with Inkscape (http://www.inkscape.org/) -->

<svg
   xmlns:dc="http://purl.org/dc/elements/1.1/"
   xmlns:cc="http://creativecommons.org/ns#"
   xmlns:rdf="http://www.w3.org/1999/02/22-rdf-syntax-ns#"
   xmlns:svg="http://www.w3.org/2000/svg"
   xmlns="http://www.w3.org/2000/svg"
   xmlns:sodipodi="http://sodipodi.sourceforge.net/DTD/sodipodi-0.dtd"
   xmlns:inkscape="http://www.inkscape.org/namespaces/inkscape"
   width="280.09348mm"
   height="329.3577mm"
   viewBox="0 0 992.45718 1167.0154"
   id="svg5066"
   version="1.1"
   inkscape:version="0.91 r13725"
   sodipodi:docname="material-logo-color-secondary.svg">
  <defs
     id="defs5068" />
  <sodipodi:namedview
     id="base"
     pagecolor="#ffffff"
     bordercolor="#666666"
     borderopacity="1.0"
     inkscape:pageopacity="0.0"
     inkscape:pageshadow="2"
     inkscape:zoom="0.49497475"
     inkscape:cx="708.58152"
     inkscape:cy="356.25597"
     inkscape:document-units="px"
     inkscape:current-layer="g5660"
     showgrid="false"
     fit-margin-left="50"
     fit-margin-right="50"
     fit-margin-bottom="50"
     fit-margin-top="50"
     showguides="true"
     inkscape:guide-bbox="true"
     inkscape:window-width="1920"
     inkscape:window-height="1025"
     inkscape:window-x="1280"
     inkscape:window-y="0"
     inkscape:window-maximized="1"
     inkscape:snap-perpendicular="false">
    <sodipodi:guide
       position="679.95216,505.81187"
       orientation="1,0"
       id="guide5685" />
    <sodipodi:guide
       position="176.84396,525.48688"
       orientation="1,0"
       id="guide5687" />
  </sodipodi:namedview>
  <metadata
     id="metadata5071">
    <rdf:RDF>
      <cc:Work
         rdf:about="">
        <dc:format>image/svg+xml</dc:format>
        <dc:type
           rdf:resource="http://purl.org/dc/dcmitype/StillImage" />
        <dc:title></dc:title>
      </cc:Work>
    </rdf:RDF>
  </metadata>
  <g
     inkscape:label="Layer 1"
     inkscape:groupmode="layer"
     id="layer1"
     transform="translate(46.565916,-47.812643)">
    <g
       id="g5669"
       transform="translate(0,-102)">
      <g
         transform="translate(-11.849498,0.086961)"
         id="g5660">
        <g
           id="g5651">
          <path
             id="path4973"
             d="m 365.6183,460.44699 -13.67458,34.32631 a 221.14162,221.14162 0 0 0 -26.47036,7.03675 l -29.54395,-23.31267 -13.08462,7.55335 -25.69549,14.83616 -13.08462,7.55488 5.35093,36.78856 a 221.14162,221.14162 0 0 0 -19.38775,19.11263 l -37.2914,-5.42581 -7.55488,13.08462 -14.8361,25.69545 -7.55339,13.08462 22.99784,29.14351 a 221.14162,221.14162 0 0 0 -7.42036,26.37405 l -34.79096,13.86105 0,15.10822 0,29.67081 0,15.10975 34.30797,13.66695 a 221.14162,221.14162 0 0 0 6.99396,26.55592 l -23.25311,29.46601 7.55488,13.08462 14.83469,25.69544 7.55488,13.08462 36.40949,-5.2959 a 221.14162,221.14162 0 0 0 19.42593,19.7836 l -5.35852,36.84052 13.08462,7.55488 25.69541,14.83617 13.08462,7.55334 28.63761,-22.5989 a 221.14162,221.14162 0 0 0 27.14436,7.68479 l 13.59515,34.12762 15.10973,0 29.6708,0 15.10823,0 13.38113,-33.5881 a 221.14162,221.14162 0 0 0 27.43935,-7.24308 l 28.86993,22.78232 13.08462,-7.55488 25.69544,-14.83464 13.08462,-7.55488 -5.20267,-35.75536 a 221.14162,221.14162 0 0 0 20.31396,-19.98993 l 36.21694,5.2684 7.55487,-13.08463 14.83464,-25.69545 7.55487,-13.08462 -22.35741,-28.33193 a 221.14162,221.14162 0 0 0 7.75815,-27.57537 l 33.81277,-13.46978 0,-15.10975 0,-29.67081 0,-15.10822 -33.60644,-13.38877 a 221.14162,221.14162 0 0 0 -7.28587,-27.35529 l 22.84192,-28.94635 -7.55336,-13.08462 -14.83616,-25.69544 -7.55488,-13.08462 -36.1344,5.25769 a 221.14162,221.14162 0 0 0 -19.67661,-19.9181 l 5.33564,-36.66782 -13.08462,-7.55487 -25.69544,-14.83464 -13.08463,-7.55488 -28.83783,22.75633 a 221.14162,221.14162 0 0 0 -26.80506,-7.49374 l -13.73572,-34.47609 -15.10822,0 -29.67081,0 -15.10973,0 z m 29.15266,90.53471 a 160.54363,160.54363 0 0 1 160.54302,160.54302 160.54363,160.54363 0 0 1 -160.54302,160.54302 160.54363,160.54363 0 0 1 -160.54305,-160.54302 160.54363,160.54363 0 0 1 160.54305,-160.54302 z"
             style="fill:#0f5738;fill-opacity:1;stroke-width:5;stroke-miterlimit:4;stroke-dasharray:none"
             inkscape:connector-curvature="0" />
        </g>
        <path
           inkscape:connector-curvature="0"
           style="fill:#003a21;fill-opacity:1;stroke-width:5;stroke-miterlimit:4;stroke-dasharray:none"
           d="m 394.77096,549.97155 a 161.55379,161.55379 0 0 0 -161.5532,161.55317 161.55379,161.55379 0 0 0 161.5532,161.55317 161.55379,161.55379 0 0 0 161.55317,-161.55317 161.55379,161.55379 0 0 0 -161.55317,-161.55317 z m 0,17.9671 a 143.58564,143.58564 0 0 1 143.58607,143.58607 143.58564,143.58564 0 0 1 -143.58607,143.58607 143.58564,143.58564 0 0 1 -143.5861,-143.58607 143.58564,143.58564 0 0 1 143.5861,-143.58607 z"
           id="path5045" />
        <path
           style="fill:#0f5738;fill-opacity:1;stroke:none;stroke-width:14.80000019;stroke-linecap:round;stroke-linejoin:round;stroke-miterlimit:4;stroke-dasharray:none;stroke-opacity:1"
           d="m 667.83398,-58.390625 -5.68359,24.798828 a 107.64628,107.64628 0 0 0 -37.01562,15.257813 l -21.47852,-13.46875 -9.2168,9.216796 -4.57617,4.578126 -9.21875,9.2187495 13.49219,21.5136715 a 107.64628,107.64628 0 0 0 -15.39063,37.009766 l -24.68164,5.65625 0,13.035156 0,6.472657 0,13.037109 24.78321,5.679687 a 107.64628,107.64628 0 0 0 15.26562,37.035156 l -13.46094,21.46289 9.2168,9.21875 4.57813,4.57617 9.21679,9.21875 21.50391,-13.48633 a 107.64628,107.64628 0 0 0 37.02344,15.39258 l 5.65429,24.67383 13.03516,0 6.47266,0 13.0371,0 5.67969,-24.7832 a 107.64628,107.64628 0 0 0 37.02735,-15.26758 l 21.4707,13.46289 9.2168,-9.2168 4.57812,-4.57812 9.21875,-9.21875 -13.49219,-21.51172 a 107.64628,107.64628 0 0 0 15.38282,-37.009766 l 24.68945,-5.658203 0,-13.035156 0,-6.472656 0,-13.03711 -24.79883,-5.683593 a 107.64628,107.64628 0 0 0 -15.26172,-37.013672 l 13.47266,-21.480469 -9.21875,-9.21875 -4.57617,-4.576172 -9.21875,-9.21875 -21.52344,13.498047 a 107.64628,107.64628 0 0 0 -36.99805,-15.382812 l -5.66015,-24.695313 -13.03516,0 -6.47266,0 -13.03711,0 z m 16.2793,53.9707031 a 76.077835,76.077835 0 0 1 76.07813,76.0781249 76.077835,76.077835 0 0 1 -76.07813,76.078127 76.077835,76.077835 0 0 1 -76.07812,-76.078127 76.077835,76.077835 0 0 1 76.07812,-76.0781249 z"
           transform="translate(-33.586744,385.28164)"
           id="rect4152-6"
           inkscape:connector-curvature="0" />
        <path
           style="fill:#003a21;fill-opacity:1;stroke:none;stroke-width:14.80000019;stroke-linecap:round;stroke-linejoin:round;stroke-miterlimit:4;stroke-dasharray:none;stroke-opacity:1"
           d="m 650.52654,380.14743 a 76.792118,76.792118 0 0 0 -76.79241,76.79241 76.792118,76.792118 0 0 0 76.79241,76.79242 76.792118,76.792118 0 0 0 76.79241,-76.79242 76.792118,76.792118 0 0 0 -76.79241,-76.79241 z m 0,12.25659 a 64.535254,64.535254 0 0 1 64.53386,64.53582 64.535254,64.535254 0 0 1 -64.53386,64.53583 64.535254,64.535254 0 0 1 -64.53584,-64.53583 64.535254,64.535254 0 0 1 64.53584,-64.53582 z"
           id="path4207"
           inkscape:connector-curvature="0" />
        <text
           xml:space="preserve"
           style="font-style:normal;font-weight:normal;font-size:126.24175262px;line-height:125%;font-family:sans-serif;text-align:center;letter-spacing:0px;word-spacing:0px;text-anchor:middle;fill:#277553;fill-opacity:1;stroke:none;stroke-width:1px;stroke-linecap:butt;stroke-linejoin:miter;stroke-opacity:1"
           x="650.5882"
           y="500.18469"
           id="text4209"
           sodipodi:linespacing="125%"><tspan
             sodipodi:role="line"
             id="tspan4211"
             x="650.5882"
             y="500.18469"
             style="font-style:normal;font-variant:normal;font-weight:bold;font-stretch:normal;font-family:'Open Sans';-inkscape-font-specification:'Open Sans Bold';text-align:center;text-anchor:middle;fill:#277553;fill-opacity:1">Z</tspan></text>
      </g>
      <g
         transform="matrix(1.3006581,0,0,1.3006581,-79.713186,-232.45542)"
         id="g5654">
        <path
           inkscape:connector-curvature="0"
           style="fill:#277553;fill-opacity:1;stroke-width:5;stroke-miterlimit:4;stroke-dasharray:none"
           d="m 317.31445,645.14453 -0.14062,0.12695 -71.95899,0 0,31.31446 13.38477,0 0,97.73242 -17.42578,0 0,31.81836 77.02344,0 0,-31.81836 -16.66602,0 0,-64.32227 53.82031,89.92188 0.0156,0.1582 0.0391,-0.0664 0.041,0.0664 0.0156,-0.1582 53.82031,-89.92188 0,64.32227 -16.66601,0 0,31.81836 77.02343,0 0,-31.81836 -17.42578,0 0,-97.73242 13.38477,0 0,-31.31446 -71.95899,0 -0.14062,-0.12695 -0.0703,0.12695 -0.3086,0 0,0.56446 -33.58789,61.30664 -4.12695,8.10742 -4.125,-8.10742 -33.58789,-61.30664 0,-0.56446 -0.30859,0 -0.0703,-0.12695 z"
           id="rect5093" />
      </g>
    </g>
    <text
       xml:space="preserve"
       style="font-style:normal;font-weight:normal;font-size:95.54576874px;line-height:125%;font-family:sans-serif;letter-spacing:0px;word-spacing:0px;fill:#003a21;fill-opacity:1;stroke:none;stroke-width:1px;stroke-linecap:butt;stroke-linejoin:miter;stroke-opacity:1"
       x="123.22821"
       y="947.6687"
       id="text5665"
       sodipodi:linespacing="125%"><tspan
         sodipodi:role="line"
         id="tspan5667"
         x="123.22821"
         y="947.6687"
         style="font-style:normal;font-variant:normal;font-weight:800;font-stretch:normal;font-family:'Open Sans';-inkscape-font-specification:'Open Sans Ultra-Bold';fill:#003a21;fill-opacity:1">MARRIOTT</tspan></text>
    <text
       xml:space="preserve"
       style="font-style:normal;font-weight:normal;font-size:100.19247437px;line-height:125%;font-family:sans-serif;letter-spacing:0px;word-spacing:0px;fill:#003a21;fill-opacity:1;stroke:none;stroke-width:1px;stroke-linecap:butt;stroke-linejoin:miter;stroke-opacity:1"
       x="124.19825"
       y="1036.6842"
       id="text5665-9"
       sodipodi:linespacing="125%"><tspan
         sodipodi:role="line"
         id="tspan5667-0"
         x="124.19825"
         y="1036.6842"
         style="font-style:normal;font-variant:normal;font-weight:800;font-stretch:normal;font-family:'Open Sans';-inkscape-font-specification:'Open Sans Ultra-Bold';fill:#003a21;fill-opacity:1">ROBOTICS</tspan></text>
  </g>
</svg>
